<?xml version="1.0" encoding="UTF-8" standalone="no"?><svg xmlns="http://www.w3.org/2000/svg" xmlns:xlink="http://www.w3.org/1999/xlink" contentScriptType="application/ecmascript" contentStyleType="text/css" height="404px" preserveAspectRatio="none" style="width:620px;height:404px;" version="1.1" viewBox="0 0 620 404" width="620px" zoomAndPan="magnify"><defs><filter height="300%" id="f1clhy4fytuyuk" width="300%" x="-1" y="-1"><feGaussianBlur result="blurOut" stdDeviation="2.0"/><feColorMatrix in="blurOut" result="blurOut2" type="matrix" values="0 0 0 0 0 0 0 0 0 0 0 0 0 0 0 0 0 0 .4 0"/><feOffset dx="4.0" dy="4.0" in="blurOut2" result="blurOut3"/><feBlend in="SourceGraphic" in2="blurOut3" mode="normal"/></filter></defs><g><line style="stroke:#A80036;stroke-width:1.0;stroke-dasharray:5.0,5.0;" x1="28" x2="28" y1="40.2969" y2="361.4922"/><line style="stroke:#A80036;stroke-width:1.0;stroke-dasharray:5.0,5.0;" x1="469.5" x2="469.5" y1="40.2969" y2="361.4922"/><line style="stroke:#A80036;stroke-width:1.0;stroke-dasharray:5.0,5.0;" x1="587" x2="587" y1="40.2969" y2="361.4922"/><rect fill="#FEFECE" filter="url(#f1clhy4fytuyuk)" height="30.2969" style="stroke:#A80036;stroke-width:1.5;" width="42" x="5" y="5"/><text fill="#000000" font-family="sans-serif" font-size="14" lengthAdjust="spacing" textLength="28" x="12" y="24.9951">应用</text><rect fill="#FEFECE" filter="url(#f1clhy4fytuyuk)" height="30.2969" style="stroke:#A80036;stroke-width:1.5;" width="42" x="5" y="360.4922"/><text fill="#000000" font-family="sans-serif" font-size="14" lengthAdjust="spacing" textLength="28" x="12" y="380.4873">应用</text><rect fill="#FEFECE" filter="url(#f1clhy4fytuyuk)" height="30.2969" style="stroke:#A80036;stroke-width:1.5;" width="53" x="441.5" y="5"/><text fill="#000000" font-family="sans-serif" font-size="14" lengthAdjust="spacing" textLength="39" x="448.5" y="24.9951">IDaaS</text><rect fill="#FEFECE" filter="url(#f1clhy4fytuyuk)" height="30.2969" style="stroke:#A80036;stroke-width:1.5;" width="53" x="441.5" y="360.4922"/><text fill="#000000" font-family="sans-serif" font-size="14" lengthAdjust="spacing" textLength="39" x="448.5" y="380.4873">IDaaS</text><rect fill="#FEFECE" filter="url(#f1clhy4fytuyuk)" height="30.2969" style="stroke:#A80036;stroke-width:1.5;" width="42" x="564" y="5"/><text fill="#000000" font-family="sans-serif" font-size="14" lengthAdjust="spacing" textLength="28" x="571" y="24.9951">用户</text><rect fill="#FEFECE" filter="url(#f1clhy4fytuyuk)" height="30.2969" style="stroke:#A80036;stroke-width:1.5;" width="42" x="564" y="360.4922"/><text fill="#000000" font-family="sans-serif" font-size="14" lengthAdjust="spacing" textLength="28" x="571" y="380.4873">用户</text><line style="stroke:#A80036;stroke-width:1.0;" x1="28" x2="70" y1="71.4297" y2="71.4297"/><line style="stroke:#A80036;stroke-width:1.0;" x1="70" x2="70" y1="71.4297" y2="84.4297"/><line style="stroke:#A80036;stroke-width:1.0;" x1="29" x2="70" y1="84.4297" y2="84.4297"/><line style="stroke:#A80036;stroke-width:1.0;" x1="29" x2="39" y1="84.4297" y2="80.4297"/><line style="stroke:#A80036;stroke-width:1.0;" x1="29" x2="39" y1="84.4297" y2="88.4297"/><text fill="#000000" font-family="sans-serif" font-size="13" lengthAdjust="spacing" textLength="245" x="35" y="66.3638">1.调用IDaaS提供的集成脚本并完成初始化</text><line style="stroke:#A80036;stroke-width:1.0;" x1="28" x2="38" y1="113.5625" y2="109.5625"/><line style="stroke:#A80036;stroke-width:1.0;" x1="28" x2="38" y1="113.5625" y2="117.5625"/><line style="stroke:#A80036;stroke-width:1.0;" x1="28" x2="469" y1="113.5625" y2="113.5625"/><text fill="#000000" font-family="sans-serif" font-size="13" lengthAdjust="spacing" textLength="297" x="45" y="108.4966">2.初始化后，IDaaS登录模块会被嵌入应用登录模块</text><line style="stroke:#A80036;stroke-width:1.0;" x1="28" x2="38" y1="142.6953" y2="138.6953"/><line style="stroke:#A80036;stroke-width:1.0;" x1="28" x2="38" y1="142.6953" y2="146.6953"/><line style="stroke:#A80036;stroke-width:1.0;" x1="28" x2="586" y1="142.6953" y2="142.6953"/><text fill="#000000" font-family="sans-serif" font-size="13" lengthAdjust="spacing" textLength="168" x="45" y="137.6294">3.选择认证方式进行登录认证</text><line style="stroke:#A80036;stroke-width:1.0;" x1="468" x2="458" y1="171.8281" y2="167.8281"/><line style="stroke:#A80036;stroke-width:1.0;" x1="468" x2="458" y1="171.8281" y2="175.8281"/><line style="stroke:#A80036;stroke-width:1.0;" x1="28" x2="469" y1="171.8281" y2="171.8281"/><text fill="#000000" font-family="sans-serif" font-size="13" lengthAdjust="spacing" textLength="232" x="35" y="166.7622">4.通过嵌入的模块IDaaS接收到用户密码</text><line style="stroke:#A80036;stroke-width:1.0;" x1="470" x2="512" y1="200.9609" y2="200.9609"/><line style="stroke:#A80036;stroke-width:1.0;" x1="512" x2="512" y1="200.9609" y2="213.9609"/><line style="stroke:#A80036;stroke-width:1.0;" x1="471" x2="512" y1="213.9609" y2="213.9609"/><line style="stroke:#A80036;stroke-width:1.0;" x1="471" x2="481" y1="213.9609" y2="209.9609"/><line style="stroke:#A80036;stroke-width:1.0;" x1="471" x2="481" y1="213.9609" y2="217.9609"/><text fill="#000000" font-family="sans-serif" font-size="13" lengthAdjust="spacing" textLength="64" x="477" y="195.895">5.校验用户</text><line style="stroke:#A80036;stroke-width:1.0;" x1="28" x2="38" y1="243.0938" y2="239.0938"/><line style="stroke:#A80036;stroke-width:1.0;" x1="28" x2="38" y1="243.0938" y2="247.0938"/><line style="stroke:#A80036;stroke-width:1.0;" x1="28" x2="469" y1="243.0938" y2="243.0938"/><text fill="#000000" font-family="sans-serif" font-size="13" lengthAdjust="spacing" textLength="418" x="45" y="238.0278">6.认证通过后，返回用户发起的sso地址+access_token拼接的认证地址</text><line style="stroke:#A80036;stroke-width:1.0;" x1="468" x2="458" y1="272.2266" y2="268.2266"/><line style="stroke:#A80036;stroke-width:1.0;" x1="468" x2="458" y1="272.2266" y2="276.2266"/><line style="stroke:#A80036;stroke-width:1.0;" x1="28" x2="469" y1="272.2266" y2="272.2266"/><text fill="#000000" font-family="sans-serif" font-size="13" lengthAdjust="spacing" textLength="261" x="35" y="267.1606">7.监听获取地址后发起SSO到应用的认证跳转</text><line style="stroke:#A80036;stroke-width:1.0;" x1="470" x2="512" y1="301.3594" y2="301.3594"/><line style="stroke:#A80036;stroke-width:1.0;" x1="512" x2="512" y1="301.3594" y2="314.3594"/><line style="stroke:#A80036;stroke-width:1.0;" x1="471" x2="512" y1="314.3594" y2="314.3594"/><line style="stroke:#A80036;stroke-width:1.0;" x1="471" x2="481" y1="314.3594" y2="310.3594"/><line style="stroke:#A80036;stroke-width:1.0;" x1="471" x2="481" y1="314.3594" y2="318.3594"/><text fill="#000000" font-family="sans-serif" font-size="13" lengthAdjust="spacing" textLength="103" x="477" y="296.2935">8.检测用户已登录</text><line style="stroke:#A80036;stroke-width:1.0;" x1="28" x2="38" y1="343.4922" y2="339.4922"/><line style="stroke:#A80036;stroke-width:1.0;" x1="28" x2="38" y1="343.4922" y2="347.4922"/><line style="stroke:#A80036;stroke-width:1.0;" x1="28" x2="469" y1="343.4922" y2="343.4922"/><text fill="#000000" font-family="sans-serif" font-size="13" lengthAdjust="spacing" textLength="157" x="45" y="338.4263">9.发起SSO跳转，进入应用</text></g></svg>